<svg xmlns="http://www.w3.org/2000/svg" xml:space="preserve" width="1001" height="316" fill-rule="evenodd" clip-rule="evenodd" viewBox="0 0 409.86 129.45"><g fill-rule="nonzero"><path fill="#988B8C" d="M0 39.62v20.39c0 .91.3 1.67.89 2.25.59.6 1.35.89 2.27.89h5.43c-2.21-5.49-4.21-11.02-6.21-16.59C1.59 44.24.79 41.93 0 39.62zM25.74 35.02c4.41 6.88 8.86 13.74 13.24 20.62 2.5-2.17 4.59-4.76 6.26-7.77.25-.44.47-.89.69-1.34-4.45-5.46-8.77-11.02-13.11-16.56-5.57-7.25-11.17-14.53-16.64-21.92L10.15 0H3.16c-.22 0-.42.03-.62.06L5.78 4.9l19.96 30.12zM35.12 28.16c4.06 5.05 8.15 10.09 12.15 15.18 1.27-3.51 1.92-7.3 1.96-11.39-2.85-2.9-5.66-5.84-8.45-8.77-4.29-4.61-8.58-9.22-12.77-13.94l-6.28-7.07-1.82-2.1C19.19.03 18.45 0 17.71 0h-6.13l5.91 7.01c5.94 7.01 11.8 14.08 17.63 21.15zM1.46 17.2 0 14.03V32.6c1.75 4.29 3.44 8.65 5.13 12.97 2.16 5.83 4.36 11.67 6.3 17.58h6.28c1.92 0 3.77-.15 5.57-.41-3.49-6.82-6.86-13.71-10.18-20.61C9.18 33.84 5.26 25.54 1.46 17.2zM36.5 57.56c-4.44-6.99-8.79-14-13.21-20.99L4.5 5.72 1.35.52C1.19.63 1.03.76.89.9.3 1.48 0 2.24 0 3.16v7.74l2.96 5.56c4.32 8.11 8.55 16.26 12.77 24.38 3.58 7.1 7.16 14.14 10.56 21.32 2.75-.67 5.33-1.69 7.75-3.04.86-.48 1.67-1.02 2.46-1.56zM29.34 7.95c4.59 4.33 9.05 8.77 13.55 13.21 2.05 2.08 4.1 4.18 6.13 6.29-.47-4.46-1.73-8.53-3.78-12.2-2.67-4.77-6.4-8.51-11.2-11.2C30.15 1.86 25.83.58 21.1.16l1.36 1.28 6.88 6.51zM63.02 62.39c-.51-.51-.77-1.12-.77-1.82v-46.6c0-.76.26-1.38.77-1.86.51-.48 1.11-.73 1.82-.73h31.09c.75 0 1.37.25 1.86.73.48.48.73 1.08.73 1.79s-.25 1.29-.73 1.76c-.49.47-1.11.7-1.86.7h-28.5v18.29h20.75c.75 0 1.37.24 1.85.73.49.48.73 1.08.73 1.79 0 .7-.26 1.3-.76 1.79-.51.48-1.12.73-1.82.73H67.43v18.5h28.5c.75 0 1.37.23 1.86.69.48.47.73 1.05.73 1.75 0 .71-.25 1.31-.73 1.79-.49.5-1.11.73-1.86.73H64.84c-.71 0-1.31-.25-1.82-.76zM123.97 39.89c2.26 0 4.27-.51 6.04-1.5a10.59 10.59 0 0 0 4.14-4.15c.99-1.76 1.49-3.76 1.49-6.02 0-2.3-.5-4.34-1.49-6.13s-2.38-3.2-4.14-4.22c-1.77-1.02-3.78-1.51-6.04-1.51H113.3v23.53h10.67zm-15.11 22.53c-.49-.48-.73-1.11-.73-1.85v-46.6c0-.76.24-1.38.73-1.86.48-.48 1.1-.73 1.86-.73h13.25c3.23 0 6.11.71 8.66 2.16 2.54 1.44 4.51 3.42 5.93 5.96 1.41 2.55 2.12 5.45 2.12 8.72 0 3.23-.71 6.1-2.12 8.62-1.42 2.51-3.39 4.48-5.93 5.89-2.55 1.43-5.43 2.12-8.66 2.12H113.3v15.72c0 .74-.24 1.37-.73 1.85-.49.5-1.1.73-1.85.73-.76 0-1.38-.23-1.86-.73zM149.46 62.39c-.5-.51-.76-1.12-.76-1.82v-46.6c0-.76.26-1.38.76-1.86a2.58 2.58 0 0 1 1.82-.73c.76 0 1.38.25 1.86.73.49.48.73 1.1.73 1.86v46.6c0 .7-.24 1.31-.73 1.82-.48.51-1.1.76-1.86.76-.7 0-1.31-.25-1.82-.76zM167.9 62.39c-.51-.51-.77-1.12-.77-1.82v-46.6c0-.71.26-1.32.77-1.83.5-.51 1.11-.76 1.82-.76.75 0 1.37.25 1.85.73.49.48.73 1.1.73 1.86v44.27h25.92c.75 0 1.37.24 1.86.7.49.47.73 1.05.73 1.76 0 .72-.24 1.3-.73 1.76-.49.47-1.11.69-1.86.69h-28.5c-.71 0-1.32-.25-1.82-.76zM214.93 46.38h22.01l-11-26.59-11.01 26.59zm33.28 14.19c0 .7-.26 1.31-.76 1.82-.51.51-1.12.76-1.83.76-1.14 0-1.96-.53-2.45-1.59l-4.44-10.74h-25.66l-4.44 10.74c-.35 1.06-1.15 1.59-2.39 1.59-.75 0-1.36-.25-1.82-.76-.46-.51-.69-1.12-.69-1.82 0-.45.06-.81.2-1.13l19.48-46.27c.49-1.19 1.33-1.79 2.53-1.79 1.19 0 2 .6 2.45 1.79l19.55 46.34c.18.31.27.66.27 1.06z"></path><path fill="#547B59" d="M183.61 104.64c.97.76 2.12 1.33 3.31 1.76 1.18.5 2.42.76 3.66.98 1.27.13 2.51.22 3.69.04 1.24-.13 2.43-.44 3.54-.93.56-.22 1.09-.52 1.67-.79.48-.35 1.01-.67 1.54-1.06 1.99-1.45 3.75-3.35 5.38-5.37.31-.45.62-.84.93-1.24-.36-.17-.71-.35-1.11-.48-3.21-1.45-6.52-2.69-9.87-3.36-1.68-.26-3.26-.43-4.81-.39-1.54.04-3.04.22-4.41.57-1.4.4-2.77.93-3.88 1.73-3.16 2.11-3.3 5.67.36 8.54zm13.36-13.8c3.79.67 7.32 2.03 10.66 3.53.58.27 1.15.53 1.68.8 2.03-3 3.83-6.22 5.6-9.39l7.76-14.34c2.64-4.75 5.42-9.47 8.33-14.1 2.95-4.63 6.08-9.17 9.61-13.45 3.53-4.26 7.4-8.32 12.03-11.54 2.3-1.63 4.81-2.95 7.45-3.93 6.57-2.46 17.19-2.33 20.89 4.94 1.5 2.86 3.01 8.99-3.35 17.81-.13.22-.35.31-.57.31a.96.96 0 0 1-.44-.13c-.31-.22-.39-.66-.13-1.01 4.37-6.08 5.51-11.9 3.26-16.31-4.67-9.08-17.54-5.78-25.48.56-4.05 3.31-7.62 7.32-10.84 11.56-3.22 4.24-6.13 8.78-8.95 13.36-2.78 4.58-5.47 9.26-8.07 14.02-2.6 4.71-5.16 9.51-7.89 14.27-1.76 3.04-3.61 6.13-5.69 9.04 1.55.8 3.09 1.54 4.63 2.34 3.22 1.63 6.44 3.22 9.7 4.81l2.43 1.15c.83.39 1.63.69 2.47 1.04.79.35 1.58.76 2.42 1.07l2.47.87c3.35 1.15 6.79 2.04 10.23 2.17l1.32.04 1.28-.13.61-.04c.22 0 .45-.05.62-.09.44-.09.84-.13 1.28-.26 1.63-.41 3.17-1.15 4.36-2.3.49-.44 1.02-.66 1.37-.44.27.22.13.92-.35 1.46-1.33 1.45-3.04 2.46-4.85 3.04-.49.17-.93.26-1.41.39-.22.05-.44.09-.71.18l-.7.08-1.41.18-1.41.04c-3.8.09-7.5-.7-11.02-1.72l-2.65-.82c-.88-.28-1.72-.67-2.6-.98-.84-.35-1.72-.7-2.56-1.06l-2.51-1.09c-3.31-1.46-6.61-3.05-9.88-4.59-1.71-.84-3.43-1.69-5.15-2.52-.53.66-1.02 1.28-1.59 1.94-1.81 2.12-3.88 4.15-6.35 5.78-.57.43-1.23.74-1.89 1.15-.66.3-1.33.61-2.08.83-1.4.54-2.9.84-4.36.88-1.5.14-3-.08-4.4-.34-1.42-.37-2.79-.81-4.11-1.42-11.72-5.6-7.49-20.85 10.94-17.64z"></path><path fill="#547B59" d="M261.06 85.02c.53-1.26 1.1-2.54 1.71-3.82.66-1.24 1.19-2.39 1.81-3.48-.7-.5-1.45-.67-2.16-.59-.88.09-1.76.5-2.64 1.02-1.77 1.07-3.44 2.57-4.89 4.24-1.46 1.67-2.83 3.48-3.71 5.37a8.87 8.87 0 0 0-.92 2.82c0 .4 0 .89.13 1.28.04.09.04.22.09.31l.17.35c.49 1.15 1.76.93 2.91.35.84-.44 1.67-1.09 2.42-1.81 1.55-1.41 2.91-3.08 4.19-4.8.31-.39.58-.79.89-1.24zm5.77 19.27c-4.32 1.46-8.11-.8-8.33-7.19-.04-2.59.39-5.11 1.05-7.54-.78.94-1.62 1.82-2.51 2.65-.84.76-1.76 1.46-2.82 1.98-.53.32-1.14.5-1.81.58-.97.18-2.68-.62-3.08-.97l-.44-.35c-.18-.13-.27-.31-.4-.44-.52-.62-.83-1.37-1.05-2.17-.31-1.49-.09-2.99.26-4.32.79-2.72 2.25-4.98 4.01-6.95.88-1.02 1.85-1.94 2.95-2.74 1.06-.8 2.25-1.5 3.62-1.98 1.27-.49 2.82-.84 4.4-.49.4.04.8.23 1.15.36.35.22.75.39 1.02.65.26.27.53.53.7.8.36-.49.75-1.01 1.19-1.54.4-.49 4.41-.27 4.19.57-1.37 2.07-3.35 5.6-4.45 7.84a70.14 70.14 0 0 0-2.91 7.02c-.84 2.33-1.54 4.8-1.81 7.13-.09 1.19-.09 2.39.13 3.41.05.26.14.48.22.69.14.22.23.44.36.62.13.23.3.36.48.58.57.35 1.15 1.23 3.44.48.97-.31 1.89-.79 2.78-1.37 1.8-1.15 3.39-2.61 4.93-4.15 3.09-3.08 5.78-6.52 8.42-10.04.05-.09.14-.09.22-.09.14 0 .22.05.27.18.18.17.26.3.18.43-2.52 3.54-5.21 7.11-8.25 10.32-1.54 1.63-3.17 3.13-5.07 4.41-.92.66-1.94 1.24-3.04 1.63z"></path><path fill="#547B59" d="M285.38 105.83c-.22-2.56-.66-5.06-1.23-7.58a47.683 47.683 0 0 0-4.8 4.19c-3.66 3.61-6.66 7.89-8.69 12.56-.26.57-.44 1.2-.66 1.81-.18.58-.35 1.19-.44 1.8-.22 1.24-.31 2.48-.14 3.67.19 1.19.62 2.33 1.33 3.26 2.03 2.69 4.94 3.13 7.98 1.02 1.19-.84 2.21-1.95 3.08-3.19 1.73-2.46 2.78-5.37 3.31-8.32.57-3 .57-6.13.26-9.22zm6.35-12.56c-1.32.7-2.55 1.46-3.79 2.29.79 3.22 1.37 6.53 1.59 9.93.22 3.43.04 6.91-.8 10.31-.83 3.4-2.37 6.7-4.71 9.35-1.15 1.31-2.56 2.5-4.19 3.34-4.01 1.98-8.11.7-10.18-2.12-.88-1.14-1.37-2.5-1.54-3.91-.22-1.37-.09-2.78.17-4.11.09-.65.31-1.32.49-1.93.22-.66.4-1.29.7-1.9 2.16-4.84 5.29-9.21 9.08-12.88 1.68-1.67 3.48-3.17 5.34-4.58-.05-.18-.09-.39-.13-.57-.71-3.08-1.64-6.17-2.61-9.25l-.7-2.35-.4-1.19-.08-.31-.09-.35-.18-.69c-.4-1.87-.35-3.8.04-5.65.79-3.65 2.91-6.84 5.78-9.04 1.45-1.06 3.17-1.89 5.07-2.11.96-.09 1.94 0 2.86.31.93.26 1.72.83 2.38 1.45.53.57.53 1.19.18 1.37-.31.13-.75 0-1.1-.28-1.19-.87-2.65-1-3.97-.7-1.32.35-2.56 1.15-3.61 2.16-2.17 1.99-3.62 4.73-4.01 7.49-.23 1.41-.14 2.78.22 4.11l.13.48.09.22.08.32.4 1.13.84 2.34c.92 2.78 1.85 5.61 2.6 8.52 1.14-.76 2.33-1.41 3.57-2.13 2.29-1.23 4.63-2.37 7.05-3.39 2.43-.97 4.89-1.85 7.45-2.56.31-.09.62 0 .66.26.09.24-.13.5-.44.59a67.22 67.22 0 0 0-14.24 6.03z"></path><path fill="#547B59" d="M306.5 87.37c.92.17 1.94.13 2.86-.18 1.41-.45 2.69-1.32 3.79-2.39 1.06-1.1 1.9-2.41 2.39-3.82.22-.72.35-1.46.31-2.13-.18-2.11-2.04-1.63-3.8-.43-.88.61-1.67 1.41-2.38 2.24-.66.88-1.23 1.82-1.72 2.82l-.7 1.59c-.18.54-.36 1.06-.58 1.58-.04.24-.08.45-.17.72zm-.27 1.45c-.17 1.37-.13 2.74.22 4.05.27 1.02.71 1.99 1.37 2.82 3.75 4.72 12.25 1.72 16-.04 4.23-2.11 8.02-5.02 11.42-8.37.13-.13.35-.04.53.13.17.13.22.35.13.48-3.39 3.43-7.23 6.52-11.55 8.78-2.2 1.06-4.54 1.93-6.96 2.43-3.44.74-8.69.69-11.55-1.33-1.19-.93-2.16-2.17-2.83-3.53-.65-1.42-.96-2.92-1.01-4.46-.08-1.48.22-2.94.62-4.35.22-.67.48-1.37.75-1.99.31-.66.62-1.28.97-1.9.71-1.23 1.63-2.41 2.73-3.39 1.06-.97 2.34-1.76 3.75-2.25.75-.26 1.5-.4 2.25-.4 1.41 0 3.08.53 3.79 1.77.26.45.44.97.48 1.45.09.98-.09 1.85-.35 2.74-.53 1.67-1.5 3.17-2.73 4.45-1.24 1.24-2.74 2.2-4.46 2.74-1.1.39-2.38.43-3.57.17z"></path><path fill="#547B59" d="M337.75 86.09c3.44-1.46 6.48-3.7 8.9-6.57 1.46-1.72 2.69-3.62 3.44-5.69.36-1.06.62-2.11.62-3.13.04-1.45-.57-2.91-2.25-2.65-.3.09-.7.31-1.1.63-.75.57-1.5 1.41-2.16 2.24-1.41 1.67-2.6 3.57-3.71 5.52-1.05 1.93-2.02 3.91-2.77 5.95-.35 1-.66 2.02-.84 3-.04.22-.08.48-.13.7zm-2.2 15.03c.39-2.21.79-4.45.57-6.26-.09-.89-.35-1.63-.75-2.08l-.58-.7c-.3-.35-.48-.76-.7-1.1-.17-.4-.31-.79-.44-1.2-.04-.39-.17-.78-.22-1.13-.13-1.5.05-2.87.31-4.15.27-1.28.7-2.48 1.14-3.61.97-2.3 2.17-4.41 3.53-6.4 1.41-1.98 2.91-3.88 4.76-5.51.88-.84 1.9-1.58 3.09-2.21.62-.3 1.28-.56 2.16-.56.22.04.66.04 1.05.17 1.02.26 2.04 1.45 2.39 2.34.26.61.35 1.33.35 1.94.05 1.32-.26 2.56-.66 3.7-.84 2.29-2.16 4.36-3.7 6.17-2.74 3.23-6.22 5.77-10.19 7.19 0 .13 0 .26.04.39 0 .23.05.41.1.58.04.18.08.31.17.44.04.13.09.26.17.35.05.04.09.08.14.17l.39.5c.53.65.89 1.41 1.15 2.15.22.76.4 1.5.44 2.21.09 1.4-.08 2.68-.31 3.92-.22 1.23-.48 2.38-.83 3.52-.67 2.3-1.42 4.45-1.99 6.58-.26 1.05-.48 2.11-.48 3.08 0 .48.04.92.18 1.33.66 1.54 1.45 1.45 2.95.65.66-.35 1.28-.78 1.94-1.24 1.28-.91 2.47-1.97 3.61-3.04 2.38-2.15 4.59-4.49 6.75-6.82 4.32-4.76 8.42-9.71 12.43-14.77.09-.14.35-.18.57 0 .18.13.22.39.09.52-3.92 5.17-7.98 10.14-12.26 14.99a95.973 95.973 0 0 1-6.7 7.01c-1.14 1.15-2.38 2.2-3.7 3.22-.66.48-1.36.98-2.11 1.37-.36.17-.75.39-1.2.52-1.8.63-3.3-.56-4.01-1.5-.4-.61-.62-1.32-.79-1.98-.22-1.36-.17-2.6-.04-3.84.21-2.41.79-4.71 1.19-6.91zM312.52 54.74c-.27-.64-.68-1.15-1.24-1.58-.55-.4-1.19-.65-1.92-.74-.74-.08-1.43.02-2.07.29-.63.27-1.16.69-1.57 1.24-.41.57-.66 1.21-.74 1.94l-.33 2.78 7.8.91.33-2.82c.09-.73 0-1.4-.26-2.02zm-7.83-1.69c.55-.76 1.24-1.33 2.09-1.7.84-.37 1.76-.5 2.73-.38.98.11 1.84.45 2.58 1.02.73.56 1.27 1.28 1.63 2.15.35.87.47 1.82.35 2.84l-.5 4.19-10.38-1.24.5-4.22c.12-1 .45-1.89 1-2.66zM312.96 43.49c-.69-.21-1.3-.18-1.84.1-.54.26-.93.74-1.17 1.41-.23.66-.23 1.28 0 1.85.24.58.68 1.03 1.31 1.35l1.7-4.71zm-2.14-1.11c.9-.35 1.95-.31 3.15.13.19.07.33.12.42.16l-2.11 5.88c.7.13 1.33.04 1.89-.26.56-.32.95-.8 1.19-1.47.16-.44.23-.87.21-1.31-.03-.44-.13-.86-.32-1.24l1-.45c.26.51.41 1.06.44 1.65.03.59-.07 1.2-.29 1.83-.27.73-.66 1.32-1.17 1.78-.52.46-1.12.74-1.81.84-.68.12-1.39.03-2.12-.23-.73-.27-1.33-.64-1.78-1.17-.45-.52-.74-1.12-.86-1.79-.12-.68-.05-1.38.21-2.11.41-1.15 1.06-1.89 1.95-2.24zM319.82 37.1c.01-.47-.11-.92-.36-1.33-.24-.42-.59-.77-1.05-1.04-.45-.28-.92-.44-1.4-.47-.49-.03-.93.06-1.35.28-.41.2-.75.52-1.02.96-.27.43-.4.88-.41 1.35-.01.47.1.92.35 1.32.24.43.59.78 1.04 1.05.46.29.94.45 1.41.48.49.03.93-.07 1.35-.29.42-.2.76-.54 1.03-.96.26-.44.4-.89.41-1.35zm-4.57-3.86c.59-.32 1.23-.45 1.91-.39.69.04 1.36.27 2.03.68.66.41 1.17.92 1.51 1.5.35.58.52 1.21.5 1.86-.02.67-.22 1.31-.61 1.94-.35.57-.78.99-1.28 1.28-.51.28-1.06.41-1.65.38l3.8 2.36-.73 1.18-9.18-5.7.73-1.17 1.33.83c-.29-.53-.42-1.07-.39-1.65.03-.57.22-1.13.56-1.69.39-.62.88-1.1 1.47-1.41zM317.71 29.35l.91-1.04 5.98 5.15-.9 1.05-5.99-5.16zm-1.34-2.88c.23-.01.45.08.64.24.2.17.31.37.33.61.02.23-.05.45-.21.64a.82.82 0 0 1-.59.29.885.885 0 0 1-.65-.23.852.852 0 0 1-.12-1.24c.17-.19.36-.29.6-.31zM318.64 23.65l1-.96 7.71 7.96-1 .96zM331.44 25.35c.17-.52.15-1.02-.08-1.48l-.46-.64-1.88 1.35c-.51.37-.83.71-.96 1.05-.14.33-.09.65.15.99.24.33.56.51.95.52.39 0 .79-.14 1.21-.43.53-.4.88-.83 1.07-1.36zm1.58.77-.65-.88c-.02.97-.54 1.82-1.55 2.56-.45.32-.9.52-1.35.59-.46.08-.89.02-1.29-.14-.4-.18-.73-.44-.99-.82-.42-.56-.54-1.17-.35-1.82.18-.64.64-1.23 1.39-1.79l2.04-1.47-.22-.3c-.33-.45-.72-.7-1.18-.74-.46-.05-.95.11-1.48.51-.65.46-1.14 1.17-1.47 2.11l-1.04-.43c.25-.64.52-1.16.81-1.57.3-.42.71-.83 1.26-1.21.79-.58 1.55-.83 2.27-.75.72.07 1.34.45 1.85 1.15l3.06 4.2-1.11.8zM340.45 21.76c-.34.42-.77.78-1.31 1.07l.09.79c.39-.12.72-.12.99-.01.28.1.48.29.6.55.17.36.16.71-.02 1.06-.18.34-.48.61-.92.82-.42.19-.88.29-1.38.29l-.08-.89c.34-.03.64-.09.9-.22.2-.09.34-.2.41-.35.07-.13.08-.26.03-.36-.05-.12-.16-.19-.32-.21-.15-.02-.34.02-.56.12l-.43.2-.19-1.39c-.64.22-1.26.27-1.87.16-.61-.1-1.17-.35-1.67-.76-.5-.39-.9-.9-1.2-1.54-.33-.71-.47-1.41-.43-2.1.05-.7.27-1.32.67-1.87.4-.57.94-1.01 1.63-1.34.61-.28 1.19-.44 1.76-.48a3.5 3.5 0 0 1 1.59.23l-.29 1.19c-.82-.27-1.63-.23-2.42.13-.47.22-.84.53-1.1.91-.28.37-.43.8-.45 1.28-.04.48.07.96.3 1.45.23.5.54.89.92 1.17.38.29.8.45 1.25.49.46.04.91-.04 1.37-.25.46-.21.84-.49 1.14-.81.3-.34.5-.7.61-1.09l1.06.39c-.12.49-.35.95-.68 1.37zM346.28 18.73c.35-.42.51-.89.47-1.41l-.21-.77-2.23.59c-.61.16-1.04.37-1.28.63-.25.26-.32.58-.22.99.11.39.34.67.7.81.36.15.79.16 1.29.03.62-.16 1.12-.45 1.48-.87zm-1.14-8c-.1.37-.35.62-.75.72-.21.06-.41.06-.61.03-.19-.03-.44-.08-.72-.17-.2-.06-.36-.1-.47-.13a.601.601 0 0 0-.3.01c-.3.07-.4.35-.28.83l-.93.25c-.14-.53-.15-.96-.05-1.34.1-.39.35-.63.75-.74.21-.05.4-.06.59-.03.18.03.43.09.73.16.2.07.36.1.47.13.12.01.22.01.3 0 .31-.09.4-.36.28-.82l.94-.24c.13.51.15.94.05 1.34zm2.34 9.3-.29-1.07c-.37.91-1.16 1.52-2.37 1.84-.53.13-1.02.16-1.48.06-.45-.11-.83-.3-1.14-.6-.31-.31-.52-.67-.64-1.11-.18-.68-.07-1.29.33-1.83.4-.52 1.05-.92 1.96-1.17l2.42-.64-.09-.36c-.15-.54-.42-.92-.83-1.12-.41-.2-.93-.22-1.57-.06-.77.21-1.48.69-2.14 1.44l-.8-.77c.45-.49.89-.89 1.32-1.18.42-.27.96-.49 1.6-.67.96-.24 1.75-.22 2.4.12.64.33 1.08.92 1.31 1.75l1.34 5.02-1.33.35zM352.31 12.88c-.39.26-.68.61-.88 1.05-.2.43-.29.91-.25 1.45.03.56.17 1.04.42 1.44.25.43.58.73.99.95.42.2.89.29 1.4.26.51-.03.96-.17 1.35-.43.39-.25.68-.6.88-1.05.2-.44.28-.93.25-1.47a3.28 3.28 0 0 0-.42-1.43c-.25-.41-.58-.71-1-.93-.42-.22-.88-.31-1.39-.28-.51.03-.96.18-1.35.44zm3.41-1.27c.63.31 1.13.75 1.51 1.33.38.58.59 1.26.64 2.04.04.77-.09 1.47-.39 2.09-.31.64-.76 1.14-1.35 1.52-.59.36-1.28.58-2.06.62-.8.04-1.51-.09-2.14-.38a3.67 3.67 0 0 1-1.52-1.32c-.38-.58-.59-1.27-.64-2.05-.04-.78.09-1.47.39-2.1.31-.63.76-1.12 1.35-1.5.6-.36 1.28-.58 2.08-.62.79-.05 1.5.07 2.13.37zM367.49 18.86c.51-.22.87-.55 1.07-1.05l.18-.77-2.27-.51c-.6-.13-1.08-.14-1.42-.03-.34.12-.55.38-.64.78-.09.39-.01.74.24 1.04.24.31.62.51 1.13.63.62.14 1.2.12 1.71-.09zm.46 1.7.25-1.07c-.75.62-1.73.8-2.95.52-.54-.13-.99-.33-1.34-.62-.36-.3-.61-.66-.74-1.07-.14-.4-.15-.83-.06-1.28.16-.68.54-1.18 1.14-1.47.6-.27 1.36-.32 2.28-.13l2.44.55.09-.36c.12-.54.05-1-.22-1.37-.27-.38-.72-.62-1.36-.77-.78-.19-1.63-.09-2.57.29l-.35-1.06c.63-.23 1.2-.38 1.71-.44.51-.05 1.09 0 1.74.15.96.22 1.65.62 2.07 1.21.41.59.53 1.31.35 2.15l-1.14 5.08-1.34-.31zM379.7 13.81l1.26.69-4.33 8.06 4.02 2.17-.61 1.13-5.29-2.84zM385.15 27.88c.55.05 1.02-.11 1.41-.46l.5-.61-1.81-1.46c-.49-.39-.91-.61-1.27-.65-.35-.05-.66.1-.91.42-.26.32-.34.67-.25 1.05.09.38.34.73.75 1.05.5.4 1.03.62 1.58.66zm-.33 1.74.69-.86c-.94.23-1.9-.03-2.89-.82-.42-.35-.73-.72-.93-1.15-.19-.42-.26-.84-.2-1.26.06-.44.23-.83.51-1.18.44-.55 1-.83 1.67-.83.66 0 1.37.29 2.1.87l1.96 1.57.23-.29c.35-.43.49-.88.41-1.34-.08-.45-.37-.87-.89-1.29-.62-.5-1.43-.77-2.43-.85l.14-1.12c.67.08 1.25.19 1.73.37.48.17.98.46 1.5.89.77.61 1.21 1.28 1.33 1.99.12.71-.09 1.41-.62 2.1l-3.24 4.06-1.07-.86zM394.44 30c-.18-.37-.38-.69-.62-.97-.28-.3-.56-.5-.84-.59-.29-.09-.55-.03-.79.19-.23.2-.32.48-.26.8.07.32.23.74.49 1.29.24.51.42.96.53 1.33.11.36.13.74.07 1.12-.07.39-.3.75-.68 1.09-.55.49-1.17.65-1.83.49-.67-.16-1.28-.55-1.83-1.17a5.5 5.5 0 0 1-.92-1.47c-.22-.54-.33-1.07-.32-1.59l1.11-.28c-.01.45.08.91.26 1.39.19.48.43.9.74 1.23.3.35.61.57.92.66.31.1.6.03.86-.19.27-.25.37-.54.31-.88-.06-.33-.22-.78-.48-1.35-.24-.49-.41-.92-.52-1.26-.1-.37-.12-.72-.05-1.1.07-.37.28-.71.64-1.03.54-.49 1.14-.65 1.77-.49.63.16 1.22.53 1.75 1.13.32.36.58.76.79 1.19.21.44.33.86.38 1.27l-1.12.32c-.07-.38-.19-.76-.36-1.13zM398.29 39.31c.59-.41.94-.9 1.06-1.5.13-.58-.01-1.19-.38-1.79-.37-.6-.85-.99-1.45-1.16-.6-.18-1.22-.11-1.87.19l2.64 4.26zm2.19-.98c-.29.91-.98 1.71-2.07 2.38-.17.11-.3.19-.39.23l-3.28-5.31c-.54.46-.86 1-.97 1.63-.1.64.04 1.25.41 1.85.24.4.54.72.9.99.36.24.75.42 1.16.5l-.27 1.07c-.56-.1-1.08-.34-1.56-.69-.49-.33-.9-.8-1.25-1.36-.41-.66-.63-1.33-.67-2.03-.03-.68.13-1.32.47-1.93.34-.6.84-1.11 1.5-1.52.66-.4 1.33-.62 2.02-.65.69-.05 1.34.11 1.95.43.6.34 1.1.82 1.51 1.47.64 1.05.82 2.03.54 2.94zM403.53 43.6c.45.34.81.8 1.07 1.4l-1.24.52c-.28-.75-.73-1.28-1.33-1.57-.6-.29-1.27-.32-2-.1l-3.85 1.6-.53-1.28 7.31-3.03.52 1.28-1.57.66c.63.03 1.16.2 1.62.52zM403.82 57.6c.71-.14 1.23-.46 1.58-.96.35-.49.47-1.09.36-1.8-.1-.69-.39-1.24-.87-1.63-.48-.39-1.08-.6-1.79-.58l.72 4.97zm2.41-.04c-.62.73-1.57 1.18-2.85 1.37-.19.03-.34.04-.44.06l-.9-6.19c-.69.22-1.2.58-1.55 1.12-.34.54-.46 1.17-.36 1.86.07.47.22.89.44 1.26.23.37.52.69.87.94l-.68.86c-.47-.32-.86-.73-1.16-1.24a4.48 4.48 0 0 1-.6-1.76c-.12-.77-.05-1.47.19-2.11.24-.65.64-1.18 1.19-1.6.56-.42 1.22-.68 1.99-.8.77-.1 1.47-.04 2.11.2.65.24 1.19.63 1.61 1.18.42.54.69 1.2.8 1.95.18 1.21-.04 2.17-.66 2.9zM409.86 66.23l-1.03 7.19-1.29-.19.83-5.76-3.19-.46-.75 5.16-1.28-.19.74-5.16-3.3-.47-.85 5.94-1.29-.19 1.06-7.35zM403.11 78.94c.24-.34.42-.67.53-1 .14-.41.17-.75.11-1.04a.784.784 0 0 0-.55-.59c-.3-.11-.57-.05-.82.17-.25.22-.54.57-.89 1.06-.33.47-.62.85-.89 1.12-.26.28-.58.48-.95.61-.37.14-.79.12-1.27-.04-.71-.23-1.16-.68-1.35-1.34-.18-.67-.14-1.38.13-2.18.19-.55.46-1.06.82-1.53.35-.47.76-.81 1.21-1.06l.79.83c-.39.2-.74.51-1.07.91-.32.4-.56.82-.7 1.26-.15.43-.19.8-.12 1.12.07.32.27.54.6.65.34.12.64.06.9-.16.27-.22.58-.58.94-1.09.32-.45.6-.81.85-1.08.26-.27.56-.46.92-.59.36-.12.76-.11 1.21.04.7.25 1.14.67 1.32 1.3.17.64.13 1.32-.13 2.09-.15.45-.37.87-.65 1.27-.27.39-.57.71-.9.96l-.84-.82c.3-.24.57-.54.8-.87zM394.14 83.87c-.08-.72.03-1.36.31-1.92.29-.55.69-.93 1.19-1.1.51-.18 1.1-.09 1.78.24l3.9 1.98.51-1 .94.48-.5 1 1.89.96-.64 1.26-1.89-.97-1.09 2.16-.95-.48 1.1-2.16-3.68-1.86c-.39-.2-.71-.28-.95-.22-.24.06-.43.24-.58.53-.16.33-.24.75-.22 1.25l-1.12-.15zM399.84 94.45l-1.35.79-.09-2.36.81-.87.63 2.44zm-6.47-2.59c.61.4 1.21.53 1.8.43.59-.12 1.09-.47 1.52-1.04.41-.57.58-1.16.52-1.77-.07-.63-.36-1.18-.88-1.68l-2.96 4.06zm1.74 1.66c-.95.08-1.94-.26-2.98-1.02-.16-.11-.28-.2-.36-.27l3.68-5.04c-.63-.33-1.26-.42-1.89-.28-.62.15-1.14.5-1.56 1.07-.27.38-.46.78-.56 1.21-.1.43-.11.85-.04 1.28l-1.09.14c-.11-.55-.09-1.12.05-1.7.13-.58.4-1.14.79-1.67.46-.63 1-1.1 1.62-1.39.63-.29 1.28-.39 1.97-.3.68.08 1.34.36 1.97.81.63.47 1.09 1.01 1.38 1.63.29.63.4 1.28.33 1.97-.08.68-.34 1.34-.79 1.95-.72.99-1.56 1.53-2.52 1.61zM385.25 94.61c.16-.71.47-1.28.91-1.71.45-.45.94-.67 1.48-.67.54-.02 1.07.24 1.61.78l3.07 3.12.8-.79.75.74-.8.8 1.49 1.5-1 .99-1.49-1.51-1.72 1.7-.74-.74 1.72-1.7-2.91-2.94c-.3-.31-.58-.47-.82-.5-.25-.03-.49.08-.71.31-.27.26-.48.64-.61 1.12l-1.03-.5zM389.44 104.38c-.24-.03-.43-.15-.6-.35a.932.932 0 0 1-.2-.65c.02-.25.13-.44.33-.6.19-.15.41-.21.64-.18.24.03.43.15.59.35.17.21.23.43.21.66-.02.23-.13.42-.33.58-.19.16-.41.22-.64.19zm-.78-3.09-1.08.86-4.91-6.18 1.09-.88 4.9 6.2zM381.37 104.87c.45-.26.79-.59 1.02-1 .23-.41.34-.84.33-1.31-.02-.48-.17-.96-.45-1.43-.27-.48-.62-.83-1.02-1.07-.4-.25-.84-.38-1.29-.38-.46 0-.91.13-1.35.39-.44.25-.78.55-1.05.92-.27.35-.43.73-.5 1.13l-1.1-.29c.09-.57.3-1.09.66-1.57.35-.49.83-.92 1.43-1.27.66-.39 1.33-.59 2.02-.61.69 0 1.33.16 1.92.51.59.35 1.09.86 1.48 1.53.4.67.61 1.35.63 2.05.02.69-.14 1.33-.49 1.92-.34.6-.84 1.1-1.5 1.49-.58.33-1.14.55-1.71.65-.56.09-1.09.06-1.6-.08l.17-1.23c.85.21 1.65.09 2.4-.35zM371 103.97c-.32.45-.43.93-.34 1.46l.28.74 2.17-.8c.59-.22 1-.47 1.21-.76.22-.27.26-.61.12-.99-.14-.39-.39-.64-.77-.75-.37-.12-.8-.09-1.28.08-.61.24-1.08.57-1.39 1.02zm-1.32-1.18.39 1.04c.27-.94 1.01-1.62 2.18-2.04.52-.19 1.01-.26 1.47-.2.46.04.85.2 1.19.48.34.26.59.61.74 1.04.25.66.2 1.28-.15 1.85-.35.57-.96 1.02-1.83 1.36l-2.36.85.13.35c.19.53.5.88.93 1.04.42.17.95.14 1.56-.09.75-.28 1.41-.82 1.99-1.65l.88.7c-.4.54-.81.98-1.2 1.3-.4.32-.91.6-1.54.83-.92.33-1.72.38-2.39.1-.67-.26-1.16-.8-1.47-1.62l-1.81-4.87 1.29-.47z"></path></g></svg>